<?xml version="1.0" ?><!DOCTYPE svg  PUBLIC '-//W3C//DTD SVG 1.1//EN'  'http://www.w3.org/Graphics/SVG/1.1/DTD/svg11.dtd'><svg height="512px" style="enable-background:new 0 0 512 512;" version="1.1" viewBox="0 0 512 512" width="512px" xml:space="preserve" xmlns="http://www.w3.org/2000/svg" xmlns:xlink="http://www.w3.org/1999/xlink"><g id="_x34__x2C__InDesign_x2C__Adobe"><g><path d="M0,0v512h512V0H0z M489.471,489.475H22.525V22.529h466.945V489.475z"/><g><g><g><rect height="234.62" width="38.622" x="143.646" y="137.103"/><path d="M328.804,137.103v59.987c0,0-6.915,0-11.525,0c-39.316,0-86.849,25.354-86.849,90.115       c0,50.064,25.372,87.693,79.399,87.693c39.781,0,58.521-13.762,58.521-13.762V137.103H328.804z M328.761,340.44       c0,0-4.551,2.005-15.295,2.005c-10.748,0-43.71-4.736-43.71-57.005c0-52.27,37.881-56.458,46.988-56.458       c9.102,0,12.017,2.552,12.017,2.552V340.44z"/></g></g></g></g></g><g id="Layer_1"/></svg>
