<?xml version="1.0" ?><!DOCTYPE svg  PUBLIC '-//W3C//DTD SVG 1.1//EN'  'http://www.w3.org/Graphics/SVG/1.1/DTD/svg11.dtd'><svg height="512px" style="enable-background:new 0 0 512 512;" version="1.1" viewBox="0 0 512 512" width="512px" xml:space="preserve" xmlns="http://www.w3.org/2000/svg" xmlns:xlink="http://www.w3.org/1999/xlink"><g id="_x38__x2C__Premier_Pro_x2C__Adobe"><g><path d="M0,0v512h512V0H0z M489.471,489.475H22.525V22.529h466.945V489.475z"/><g><g><g id="XMLID_864_"><g><path d="M133.632,124.705c0-1.761,0.304-2.466,1.816-2.466c11.513-0.35,34.237-0.705,57.263-0.705        c59.38,0,82.033,34.55,82.332,75.415c0,56.009-41.735,77.239-86.272,77.239c-8.48,0-16.662,0-18.784,0v80.021        c0,2.11-0.607,2.815-2.12,2.815h-32.116c-1.515,0-2.12-0.705-2.12-2.466V124.705z M169.987,240.021        c2.423,0.354,6.968,0.705,19.694,0.705c23.934,0,46.959-6.824,46.959-42.051c0-28.18-15.453-42.655-43.93-42.655        c-11.816,0-20.301,0.355-22.724,0.706V240.021z" id="XMLID_141_"/></g></g><g id="XMLID_858_"><g><path d="M382.543,179.761c1.265-0.068,2.854,0,4.124,0.354c1.589,0.35,1.906,0.705,1.906,3.521v30.551        c0,1.76-0.638,2.466-2.538,2.466c-18.095-0.706-26.646-1.274-39.569,4.017v132.512c0,2.116-0.637,2.816-2.538,2.816h-33.321        c-1.904,0-2.542-0.7-2.542-2.816V234.475c0-15.5-0.638-27.201-1.586-38.825c-0.316-1.411,0.316-2.115,1.906-2.115        C308.385,193.535,339.077,182.103,382.543,179.761z" id="XMLID_91_"/></g></g></g></g></g></g><g id="Layer_1"/></svg>
